<svg width="460" height="502" viewBox="0 0 460 502" fill="none" xmlns="http://www.w3.org/2000/svg">
<g clip-path="url(#clip0_4_95)">
<path opacity="0.38" d="M223.516 2.30681C351.609 9.21158 357.113 147.332 343.352 201.145C329.59 254.958 434.243 267.42 446.648 355.796C459.053 444.172 377.775 481.442 319.912 482.854C262.049 484.265 216.603 449.716 206.963 406.901C197.324 364.087 169.839 343.386 121.577 335.108C73.315 326.829 -13.403 261.954 1.75404 177.698C1.75404 177.698 5.30008 88.0774 89.2144 28.5653C145.657 -11.5283 223.516 2.30681 223.516 2.30681Z" fill="#E2E7FF"/>
<path d="M140.664 213.877C140.664 213.877 137.169 169.265 150.266 139.529C155.502 132.534 158.983 135.152 158.983 135.152C158.983 135.152 160.737 153.53 156.423 171.088C152.109 188.645 149.446 222.693 149.446 222.693L140.664 213.877Z" fill="#61A27D"/>
<path d="M138.053 210.386C138.053 210.386 137.169 189.389 115.368 171.023C93.5669 152.658 89.1889 152.646 89.1889 152.646C89.1889 152.646 106.638 151.773 118.85 159.653C131.063 167.533 135.428 189.389 136.299 192.893C137.169 196.396 142.405 210.386 142.405 210.386H138.053Z" fill="#578B71"/>
<path d="M152.198 213.594C152.198 213.594 156.283 193.06 180.656 178.211C205.031 163.361 209.345 164.093 209.345 164.093C209.345 164.093 192.242 160.525 178.966 166.417C165.691 172.307 158.011 193.252 156.615 196.577C155.22 199.9 147.884 212.914 147.884 212.914L152.198 213.594Z" fill="#578B71"/>
<path d="M142.405 210.386C142.405 210.386 119.721 135.152 99.6611 117.659C100.532 115.093 124.087 122.908 131.063 142.147C138.04 161.385 139.794 190.262 142.405 198.142C144.133 203.217 146.173 208.181 148.511 213.004" fill="#7CC97D"/>
<path d="M140.664 213.877C140.664 213.877 149.395 172.807 172.08 158.767C173.821 164.016 148.512 206.882 151.136 226.133C153.761 245.384 140.664 213.877 140.664 213.877Z" fill="#7CC97D"/>
<path d="M128.208 260.271H161.761C163.822 246.244 165.602 233.628 165.883 228.802C166.254 221.283 164.763 213.787 161.544 206.985H128.426C125.207 213.787 123.716 221.283 124.087 228.802C124.406 233.577 126.147 246.155 128.208 260.271Z" fill="#A9A7E7"/>
<path d="M433.757 176.453H372.219V259.926H433.757V176.453Z" fill="#24ADB2"/>
<path d="M427.42 176.453H365.882V259.926H427.42V176.453Z" fill="#26C6DA"/>
<path d="M412.032 167.982H350.495V259.913H412.032V167.982Z" fill="#040929"/>
<path d="M405.696 167.982H335.108V259.913H405.696V167.982Z" fill="#9C31E9"/>
<path d="M405.708 167.982H393.636V259.913H405.708V167.982Z" fill="#150E42"/>
<path d="M53.3573 190.967C53.3573 190.967 43.7049 195.819 39.4804 209.718C35.256 223.617 58.1836 261.132 58.1836 259.322C58.1836 257.512 81.1109 247.219 81.1109 247.219L69.5898 204.867L53.3573 190.967Z" fill="#202F7C"/>
<path d="M294.476 264.379L281.725 230.613H249.862L262.612 264.379" fill="#4F57A0"/>
<path d="M178.851 237.299H360.032L363.195 220.268H182.013" fill="#E2E7FF"/>
<path d="M198.054 134.048L182.014 220.268H363.195L378.864 136.038C379.004 135.254 378.971 134.449 378.768 133.679C378.564 132.909 378.195 132.193 377.686 131.582C377.178 130.97 376.542 130.478 375.822 130.139C375.104 129.8 374.319 129.623 373.526 129.621H203.392C202.127 129.619 200.902 130.061 199.927 130.87C198.952 131.679 198.29 132.803 198.054 134.048Z" fill="#243FA7"/>
<path d="M287.293 252.199L335.261 216.366L288.203 213.645L243.857 248.118L287.293 252.199Z" fill="white"/>
<path d="M273.877 240.559L285.936 233.91C285.936 233.91 297.586 229.072 297.932 229.072C298.277 229.072 299.288 230.202 298.047 232.589C296.805 234.976 293.515 235.528 293.515 235.528L291.365 241.547L302.528 239.955L305.088 239.352C304.348 241.268 303.494 243.137 302.528 244.948C300.989 246.36 299.322 247.623 297.547 248.721C297.547 248.721 289.56 255.382 286.692 256.139C283.824 256.897 273.89 257.346 273.89 257.346L267.489 257.191L261.601 258.398C259.629 254.203 258.748 249.576 259.041 244.948L273.877 240.559Z" fill="#FF8D68"/>
<path d="M345.362 268.383L380.362 497.009H388.81L365.883 267.176L345.362 268.383Z" fill="#E2E7FF"/>
<path d="M416.564 268.383L451.551 497.009H460L437.073 267.176L416.564 268.383Z" fill="#E2E7FF"/>
<path d="M211.432 268.383L176.444 497.009H167.996L190.923 267.176L211.432 268.383Z" fill="#C2D3EB"/>
<path d="M140.242 268.383L105.243 497.009H96.806L119.721 267.176L140.242 268.383Z" fill="#C2D3EB"/>
<path d="M441.899 265.97H126.966V276.853H441.899V265.97Z" fill="#A9A7E7"/>
<path d="M447.928 270.796H136.619C135.02 270.796 133.486 270.158 132.355 269.025C131.225 267.891 130.59 266.354 130.59 264.751C130.59 263.147 131.225 261.61 132.355 260.476C133.486 259.343 135.02 258.706 136.619 258.706H447.928C449.527 258.706 451.061 259.343 452.192 260.476C453.323 261.61 453.958 263.147 453.958 264.751C453.958 266.354 453.323 267.891 452.192 269.025C451.061 270.158 449.527 270.796 447.928 270.796Z" fill="#3C3859"/>
<path d="M147.052 474.036C147.052 474.036 149.024 469.172 157.294 470.032C165.563 470.892 166.601 472.432 167.739 476.513C168.879 480.595 171.951 484.869 173.898 485.729C175.843 486.589 183.012 490.99 188.747 491.67C194.483 492.351 195.276 495.79 194.098 497.433C192.92 499.076 171.491 501.399 166.728 501.001C166.728 501.001 150.598 501.463 146.745 500.385C142.891 499.307 146.809 475.628 147.052 474.036Z" fill="#5E0E98"/>
<path d="M149.241 439.204L146.758 477.167C150.451 478.389 153.958 480.117 157.179 482.301C163.81 487.166 169.238 481.275 169.238 481.275L170.735 457.416L149.241 439.204Z" fill="#FF8D68"/>
<path d="M197.247 372.416L172.822 477.655C172.822 477.655 160.148 479.478 144.761 472.214C144.761 472.214 158.343 373.327 159.239 366.974C160.135 360.621 195.443 366.974 197.247 372.416Z" fill="#9C31E9"/>
<path d="M98.2012 100.128C98.2012 100.128 108.238 102.002 114.843 116.812C121.449 131.622 119.849 164.144 116.38 168.148C112.911 172.153 101.491 171.498 85.4514 167.34C68.5145 162.963 61.7681 146.061 58.0556 134.857C50.9251 113.45 68.3608 89.7323 98.2012 100.128Z" fill="#FF8D68"/>
<path d="M70.358 186.822L76.1316 159.113C76.1316 159.113 90.9818 153.671 101.107 163.169L104.564 167.378L105.729 185.09C94.1323 187.748 82.1579 188.335 70.358 186.822Z" fill="#FF8D68"/>
<path d="M70.0381 357.208C93.0893 363.291 116.889 366.044 140.715 365.383C179.12 364.1 184.139 353.177 185.329 342.782C186.52 332.386 156.692 326.097 143.724 322.658C130.756 319.218 86.3858 306.475 74.3778 319.424C62.3699 332.374 59.592 348.339 70.0381 357.208Z" fill="#201360"/>
<path d="M236.637 474.036C236.637 474.036 238.622 469.172 246.879 470.032C255.136 470.892 256.173 472.432 257.325 476.513C258.477 480.595 261.536 484.869 263.47 485.729C265.402 486.589 272.597 490.99 278.319 491.67C284.042 492.351 284.861 495.79 283.671 497.433C282.48 499.076 261.076 501.399 256.301 501.001C256.301 501.001 240.184 501.463 236.331 500.385C232.477 499.307 236.394 475.628 236.637 474.036Z" fill="#5E0E98"/>
<path d="M227.113 441.977L236.164 478.862C236.164 478.862 243.409 477.052 247.685 480.685C251.961 484.316 259.744 481.891 259.744 481.891L253.113 452.86L227.113 441.977Z" fill="#FF8D68"/>
<path d="M152.301 318.59C154.119 318.59 215.656 339.125 227.715 348.224C239.787 357.9 259.092 465.707 260.295 468.132C261.499 470.558 242.795 477.206 230.736 475.384C230.135 472.971 201.779 382.092 201.779 376.048C201.779 376.048 153.517 373.623 132.996 369.99C112.476 366.358 98.6109 365.768 90.1624 343.386C81.7131 321.003 131.127 319.193 131.127 319.193L152.301 318.59Z" fill="#9C31E9"/>
<path d="M257.581 239.044C257.581 239.044 269.345 238.749 270.254 239.955C271.164 241.162 275.375 252.045 271.457 256.64L268.142 258.988H257.901L257.581 239.044Z" fill="#E2E7FF"/>
<path d="M68.2971 182.793L71.4591 174.63C71.4591 174.63 90.4691 168.739 106.753 175.991C109.505 179.035 111.655 182.576 113.09 186.425L68.2971 182.793Z" fill="#E2E7FF"/>
<path d="M64.2261 183.704C64.2261 183.704 66.6328 179.469 70.8573 178.865C75.0818 178.262 94.3863 175.836 107.06 179.469C109.725 180.389 112.183 181.829 114.293 183.704C114.293 183.704 132.395 189.749 138.424 193.38C144.454 197.012 146.271 224.837 147.475 233.91C148.678 242.984 145.068 252.661 145.068 252.661C145.068 252.661 159.547 311.929 159.547 320.399C159.547 328.87 154.721 338.547 137.784 344.591C120.847 350.636 75.0562 348.224 59.3614 338.547C54.5353 328.87 47.2895 213.941 46.0862 203.058C44.8828 192.174 64.2261 183.704 64.2261 183.704Z" fill="#5E0E98"/>
<path d="M128.477 190.967C128.477 190.967 132.996 188.247 143.839 195.511C154.682 202.775 184.574 229.983 188.184 231.805C191.794 233.628 261.486 237.247 261.486 237.247C261.486 237.247 271.446 249.94 260.59 259.926C260.59 259.926 193.317 262.646 180.643 261.735C167.97 260.824 125.751 236.336 125.751 236.336C125.751 236.336 108.532 210.925 128.477 190.967Z" fill="#9C31E9"/>
<path d="M113.973 230.997C113.973 230.997 170.389 260.682 176.97 261.632C183.55 262.582 208.474 261.632 208.474 261.632" stroke="#1B2048" stroke-width="1.29399" stroke-miterlimit="10"/>
<path d="M190.129 238.531C190.129 238.531 192.012 248.901 185.431 255.036" stroke="#1B2048" stroke-width="1.29399" stroke-miterlimit="10"/>
<path d="M194.367 235.707C194.367 235.707 199.999 244.691 197.183 251.263" stroke="#1B2048" stroke-width="1.29399" stroke-miterlimit="10"/>
<path d="M113.499 219.203C113.499 219.203 108.801 202.698 125.251 191.866" stroke="#1B2048" stroke-width="1.29399" stroke-miterlimit="10"/>
<path d="M52.8454 203.661C52.8454 203.661 49.5554 232.884 49.5554 246.552" stroke="#1B2048" stroke-width="1.29399" stroke-miterlimit="10"/>
<path d="M69.7817 184.332C69.7817 184.332 91.4034 182.446 109.275 184.332" stroke="#1B2048" stroke-width="1.29399" stroke-miterlimit="10"/>
<path d="M211.29 374.277C211.29 374.277 221.635 370.979 225.372 354.961" stroke="#1B2048" stroke-width="1.29399" stroke-miterlimit="10"/>
<path d="M218.344 375.689C218.344 375.689 224.45 373.815 227.305 365.319" stroke="#1B2048" stroke-width="1.29399" stroke-miterlimit="10"/>
<path d="M180.733 394.08L165.217 471.854" stroke="#1B2048" stroke-width="1.29399" stroke-miterlimit="10"/>
<path d="M112.642 119.739C113.085 122.285 112.816 124.907 111.865 127.31C110.914 129.714 109.317 131.806 107.252 133.356L107.713 142.417C107.713 142.417 110.427 150.592 108.622 151.49C106.817 152.389 106.356 151.041 106.356 151.041C106.356 151.041 100.467 141.518 98.6748 141.056C96.8827 140.594 102.746 153.762 102.746 153.762C102.746 153.762 96.87 162.835 86.0017 164.196L88.2673 161.026C84.3941 163.141 79.9921 164.087 75.5937 163.746C67.9128 163.285 62.024 151.49 62.024 151.49C62.024 151.49 63.381 154.673 62.024 156.033C60.6671 157.393 52.9733 145.599 52.5252 130.622L50.2593 135.165C50.7912 127.59 52.306 120.118 54.7655 112.936C58.8364 101.142 76.9379 92.5177 86.8977 92.5177C96.8572 92.5177 106.804 93.4288 109.518 92.5177C112.232 91.6058 110.875 99.3319 110.875 99.3319C111.673 97.4288 112.282 95.4513 112.693 93.4288C114.498 92.0686 117.211 102.952 116.303 107.032L115.407 111.127C115.407 111.127 118.569 107.032 119.017 104.774C120.784 104.312 120.323 114.297 112.642 119.739Z" fill="#201360"/>
<path d="M106.074 142.339C106.074 142.339 104.244 136.269 99.2258 139.465C94.2074 142.66 101.337 156.957 105.536 155.725C109.736 154.494 107.175 144.65 106.074 142.339Z" fill="#FF634D"/>
<path d="M289.713 247.515L302.527 244.948L305.101 239.352" stroke="#E66657" stroke-width="1.99555" stroke-miterlimit="10"/>
<path d="M302.079 245.243C302.079 245.243 295.589 250.685 294.693 251.147C293.797 251.608 289.713 252.661 289.713 252.661" stroke="#E66657" stroke-width="1.99555" stroke-miterlimit="10"/>
<path d="M104.038 157.689C104.038 157.689 102.233 164.106 113.089 167.674" stroke="#E66657" stroke-width="1.99555" stroke-miterlimit="10"/>
<path d="M351.404 205.483H254.867L266.94 142.583H363.463L351.404 205.483Z" fill="#2E60BE"/>
<path d="M223.849 164.349C223.768 164.773 223.781 165.209 223.888 165.627C223.994 166.044 224.192 166.433 224.466 166.766C224.74 167.098 225.084 167.365 225.473 167.549C225.862 167.733 226.286 167.828 226.717 167.827H331.805C332.483 167.826 333.14 167.588 333.662 167.155C334.185 166.722 334.542 166.12 334.672 165.453L336.209 157.393H225.18L223.849 164.349Z" fill="#26C6F8"/>
<path d="M344.555 95.4689H239.467C238.789 95.4697 238.134 95.7067 237.612 96.1406C237.091 96.5738 236.737 97.1766 236.612 97.8436L225.18 157.393H336.208L347.422 98.9468C347.504 98.5241 347.49 98.0878 347.384 97.6698C347.277 97.2527 347.08 96.8636 346.806 96.5313C346.532 96.1991 346.188 95.9316 345.799 95.7475C345.41 95.5641 344.985 95.4689 344.555 95.4689Z" fill="#CAE5FF"/>
<path d="M272.713 167.867C274.095 164.016 274.953 161.308 274.953 161.308C274.953 161.308 278.115 144.701 263.994 148.962C260.514 151.991 258.01 155.989 256.801 160.448C256.083 162.861 255.226 165.453 254.394 167.867H272.713Z" fill="#387AB6"/>
<path d="M301.952 167.867C301.695 159.678 301.183 153.108 300.3 151.349C297.74 146.574 287.127 142.249 287.127 142.249L272.648 144.405C272.648 144.405 266.593 146.138 264.648 150.476C263.995 151.939 262.42 159.023 260.731 167.867H301.952Z" fill="#DCE4FF"/>
<path d="M275.119 132.418C274.576 136.249 273.637 140.013 272.315 143.648C272.315 143.648 271.791 147.332 279.497 145.753C287.204 144.175 286.142 140.312 286.142 140.312V125.052L275.119 132.418Z" fill="#FF8D68"/>
<path d="M264.302 116.363C264.302 116.363 264.392 130.879 268.552 137.873C271.382 140.812 281.059 136.192 285.131 129.955C289.201 123.717 289.112 114.322 285.899 109.099C282.685 103.876 272.072 105.442 268.962 107.251C265.851 109.06 264.123 114.04 264.302 116.363Z" fill="#FF8D68"/>
<path d="M283.914 124.564C283.914 124.564 286.641 120.341 288.471 122.857C290.302 125.373 283.965 130.558 283.479 128.555C283.233 127.211 283.385 125.823 283.914 124.564Z" fill="#FBA894"/>
<path d="M264.302 116.363C264.302 116.363 259.181 111.884 265.352 106.096C268.847 103.465 270.601 105.39 274.313 104.684C278.025 103.978 284.644 104.684 287.114 108.534C289.585 112.385 288.689 121.369 287.997 122.229C287.307 123.088 285.194 123.627 285.194 125.206C285.194 126.784 284.849 128.016 284.324 128.016C283.799 128.016 283.799 125.385 283.799 123.448C283.75 120.655 283.32 117.883 282.519 115.208C281.649 112.641 277.616 112.744 276.041 113.104C274.467 113.462 273.404 117.506 264.302 116.363Z" fill="#713336"/>
<path opacity="0.53" d="M283.376 120.727C283.471 120.677 283.569 120.634 283.671 120.599L283.376 120.727Z" fill="#505E83"/>
<path d="M283.671 120.599C283.671 120.88 284.618 129.287 281.29 131.622C277.961 133.959 277.692 130.981 274.953 130.545C272.214 130.108 269.986 130.262 268.757 132.059C267.528 133.856 267.886 134.626 266.888 134.151C266.671 134.729 268.168 138.271 270.486 139.208C272.802 140.144 278.269 137.257 280.726 135.101C283.184 132.944 284.682 131.558 285.118 129.685C285.553 127.811 285.335 124.192 285.834 121.663C286.116 119.751 284.375 120.303 283.671 120.599ZM271.112 136.102C267.797 135.383 268.232 132.778 271.612 131.7C271.612 131.7 275.222 130.044 276.438 132.573C276.898 134.228 274.377 136.834 271.112 136.102Z" fill="#713336"/>
<path d="M286.154 139.208C283.308 142.51 279.338 144.634 275.017 145.163C273.622 144.624 272.866 142.032 272.866 142.032L271.778 143.648C271.497 145.154 271.497 146.698 271.778 148.204C272.431 148.307 274.812 146.69 274.812 146.69C274.812 146.69 276.425 148.962 277.616 149.398C278.806 149.835 286.372 144.739 287.127 142.249C287.07 141.168 286.736 140.12 286.154 139.208Z" fill="white"/>
<path d="M303.116 167.867C302.745 159.794 302.258 153.634 301.836 152.35C300.108 148.307 293.63 143.109 287.216 142.249C287.216 142.249 284.81 153.389 282.442 167.918L303.116 167.867Z" fill="#387AB6"/>
<path d="M265.762 167.867C269.154 153.428 271.779 144.842 271.779 144.842C268.836 145.417 266.128 146.851 263.994 148.962C262.714 151.529 260.705 158.985 258.631 167.867H265.762Z" fill="#387AB6"/>
<path d="M301.759 167.867C302.003 160.166 301.568 152.992 300.3 151.349C296.203 147.871 291.876 148.089 289.713 151.991C288.535 154.121 286.974 161.565 285.783 167.867H301.759Z" fill="#387AB6"/>
<path d="M274.812 146.69C273.532 151.695 272.559 156.752 271.65 161.822" stroke="#87B8EB" stroke-width="0.56125" stroke-miterlimit="10"/>
<path d="M354.119 106.928C364.304 97.91 366.873 84.143 359.858 76.1796C352.842 68.2158 338.898 69.0705 328.713 78.0886C318.528 87.107 315.959 100.873 322.974 108.837C329.989 116.801 343.933 115.946 354.119 106.928Z" fill="#6787FF"/>
<path d="M367.56 115.94C367.104 117.589 366.142 119.052 364.808 120.121C363.475 121.191 361.84 121.811 360.134 121.895C359.403 121.93 358.673 121.785 358.009 121.473C357.347 121.161 356.769 120.691 356.328 120.103C355.888 119.516 355.598 118.829 355.482 118.104C355.367 117.378 355.431 116.635 355.667 115.94C356.123 114.287 357.087 112.82 358.422 111.749C359.758 110.678 361.396 110.056 363.105 109.972C363.838 109.938 364.567 110.085 365.23 110.398C365.893 110.712 366.47 111.184 366.909 111.773C367.348 112.362 367.637 113.048 367.751 113.775C367.864 114.502 367.799 115.245 367.56 115.94Z" fill="#6787FF"/>
<path d="M335.825 103.606C335.5 103.617 335.176 103.551 334.882 103.416C334.586 103.28 334.326 103.077 334.122 102.824L328.515 95.3152C328.167 94.6819 328.07 93.9405 328.244 93.2391C328.417 92.5377 328.847 91.9269 329.449 91.5289C329.697 91.2799 329.991 91.0814 330.315 90.9469C330.639 90.8116 330.987 90.7419 331.337 90.7419C331.689 90.7419 332.036 90.8116 332.36 90.9469C332.684 91.0814 332.978 91.2799 333.226 91.5289L337.424 97.1374L352.428 85.1118C352.675 84.8492 352.973 84.6403 353.302 84.4969C353.633 84.3544 353.988 84.2808 354.349 84.2808C354.708 84.2808 355.064 84.3544 355.394 84.4969C355.725 84.6403 356.022 84.8492 356.268 85.1118C356.637 85.7523 356.744 86.5105 356.568 87.2287C356.391 87.9461 355.944 88.5674 355.321 88.9621L337.963 102.888C337.352 103.363 336.598 103.617 335.825 103.606Z" fill="white"/>
<path d="M176.586 77.1165H169.48C169.081 77.1363 168.683 77.0576 168.322 76.8874C167.96 76.7172 167.644 76.4607 167.405 76.1402C167.164 75.8198 167.006 75.4452 166.945 75.0493C166.883 74.6535 166.918 74.2484 167.048 73.8695L168.828 66.7465C169.075 65.8505 169.597 65.0554 170.321 64.4747C171.046 63.8939 171.934 63.5572 172.86 63.5124H179.965C180.362 63.4925 180.759 63.5707 181.119 63.7402C181.48 63.9098 181.793 64.1654 182.032 64.4847C182.271 64.804 182.428 65.1773 182.49 65.5716C182.551 65.966 182.515 66.3694 182.384 66.7465L180.618 73.8695C180.372 74.767 179.85 75.5638 179.125 76.1467C178.402 76.7296 177.513 77.0689 176.586 77.1165Z" stroke="#A9A7E7" stroke-width="1.16927" stroke-miterlimit="10"/>
<path d="M199.194 77.1166H192.088C191.691 77.1341 191.294 77.0539 190.934 76.8827C190.573 76.7116 190.26 76.4548 190.022 76.1347C189.784 75.8146 189.626 75.4408 189.565 75.046C189.503 74.6512 189.539 74.2473 189.669 73.8695L191.436 66.7466C191.684 65.8515 192.207 65.0575 192.931 64.4771C193.655 63.8966 194.542 63.5591 195.468 63.5124H202.573C202.971 63.4935 203.367 63.5721 203.727 63.7417C204.088 63.9112 204.402 64.1664 204.642 64.4852C204.881 64.804 205.039 65.1766 205.103 65.5706C205.166 65.9648 205.133 66.3685 205.005 66.7466L203.264 73.8695C203.016 74.773 202.488 75.5741 201.756 76.1576C201.025 76.7411 200.127 77.0769 199.194 77.1166Z" fill="#26C6DA"/>
<path d="M221.801 77.1164H214.695C214.298 77.1339 213.901 77.0537 213.541 76.8825C213.18 76.7114 212.867 76.4546 212.629 76.1345C212.391 75.8144 212.234 75.4407 212.173 75.0459C212.11 74.6511 212.146 74.2472 212.276 73.8693L214.043 66.7465C214.291 65.8514 214.814 65.0574 215.538 64.4769C216.262 63.8964 217.15 63.559 218.075 63.5123H225.18C225.579 63.4901 225.977 63.5667 226.339 63.7353C226.701 63.904 227.016 64.1594 227.257 64.479C227.497 64.7986 227.655 65.1726 227.718 65.5682C227.779 65.9636 227.743 66.3682 227.612 66.7465L225.833 73.8693C225.59 74.7688 225.069 75.5678 224.344 76.1513C223.62 76.7347 222.729 77.0727 221.801 77.1164Z" fill="white"/>
<path d="M171.26 98.4857H164.142C163.744 98.5057 163.348 98.4272 162.988 98.2575C162.627 98.0878 162.314 97.8324 162.075 97.5129C161.836 97.1934 161.679 96.8203 161.617 96.4264C161.556 96.0317 161.592 95.6282 161.723 95.2511L163.489 88.1286C163.736 87.2287 164.261 86.4305 164.987 85.8476C165.713 85.2647 166.605 84.9261 167.534 84.8812H174.639C175.037 84.8636 175.434 84.9437 175.794 85.115C176.154 85.2864 176.467 85.5434 176.705 85.8628C176.944 86.1831 177.101 86.557 177.163 86.9517C177.225 87.3464 177.189 87.7507 177.058 88.1286L175.292 95.2511C175.044 96.1462 174.52 96.9404 173.796 97.5209C173.073 98.1014 172.185 98.4384 171.26 98.4857Z" fill="#26C6DA"/>
<path d="M165.589 121.317H158.458C158.06 121.337 157.664 121.259 157.304 121.089C156.943 120.92 156.63 120.664 156.391 120.345C156.152 120.025 155.995 119.652 155.934 119.258C155.872 118.864 155.908 118.46 156.039 118.083L157.806 110.96C158.052 110.063 158.574 109.265 159.298 108.683C160.022 108.1 160.911 107.761 161.838 107.713H168.943C169.342 107.693 169.74 107.772 170.102 107.942C170.464 108.113 170.778 108.369 171.019 108.69C171.259 109.01 171.416 109.385 171.479 109.78C171.541 110.176 171.505 110.581 171.375 110.96L169.595 118.083C169.35 118.975 168.831 119.767 168.112 120.348C167.393 120.928 166.51 121.267 165.589 121.317Z" fill="white"/>
<path d="M193.88 98.4857H186.775C186.378 98.5041 185.981 98.4256 185.621 98.2559C185.26 98.087 184.946 97.8316 184.707 97.5129C184.467 97.1934 184.309 96.8211 184.245 96.4272C184.182 96.0333 184.216 95.629 184.343 95.2511L186.123 88.1286C186.367 87.2295 186.889 86.4321 187.613 85.8484C188.337 85.2655 189.227 84.9269 190.155 84.8812H197.26C197.658 84.8636 198.055 84.9437 198.415 85.115C198.775 85.2864 199.088 85.5434 199.326 85.8628C199.565 86.1831 199.721 86.557 199.783 86.9517C199.844 87.3464 199.809 87.7507 199.679 88.1286L197.913 95.2511C197.664 96.1462 197.141 96.9404 196.417 97.5209C195.693 98.1014 194.806 98.4384 193.88 98.4857Z" fill="#EDF4FF"/>
<path d="M183.972 138.348H176.867C176.469 138.365 176.072 138.285 175.712 138.114C175.352 137.943 175.039 137.686 174.801 137.366C174.562 137.046 174.405 136.672 174.344 136.277C174.282 135.883 174.318 135.478 174.448 135.1L176.214 127.978C176.463 127.083 176.986 126.289 177.71 125.708C178.434 125.128 179.321 124.791 180.247 124.743H187.352C187.749 124.725 188.146 124.803 188.506 124.973C188.867 125.142 189.181 125.398 189.42 125.716C189.66 126.035 189.818 126.408 189.882 126.802C189.945 127.196 189.911 127.599 189.784 127.978L188.004 135.1C187.758 135.998 187.236 136.795 186.512 137.378C185.788 137.961 184.899 138.3 183.972 138.348Z" stroke="#A9A7E7" stroke-width="1.16927" stroke-miterlimit="10"/>
<path d="M397.746 110.639H395.186C395.039 110.65 394.892 110.624 394.758 110.563C394.624 110.502 394.507 110.41 394.418 110.292C394.329 110.175 394.271 110.037 394.249 109.892C394.226 109.746 394.24 109.597 394.289 109.458L394.942 106.892C395.033 106.562 395.225 106.269 395.492 106.054C395.759 105.84 396.086 105.715 396.427 105.698H398.988C399.135 105.69 399.282 105.718 399.415 105.78C399.549 105.843 399.665 105.936 399.754 106.055C399.842 106.173 399.901 106.311 399.923 106.457C399.946 106.603 399.932 106.752 399.884 106.892L399.23 109.458C399.139 109.787 398.946 110.079 398.679 110.29C398.413 110.502 398.086 110.625 397.746 110.639Z" fill="#CAE5FF"/>
<path d="M395.838 118.313H393.278C393.131 118.322 392.984 118.294 392.85 118.232C392.716 118.169 392.6 118.075 392.512 117.957C392.423 117.839 392.365 117.701 392.342 117.555C392.319 117.409 392.333 117.26 392.382 117.121L393.035 114.554C393.126 114.225 393.319 113.933 393.586 113.721C393.853 113.51 394.179 113.387 394.519 113.373H397.08C397.227 113.362 397.374 113.388 397.507 113.449C397.641 113.51 397.758 113.603 397.847 113.719C397.936 113.837 397.994 113.975 398.017 114.121C398.04 114.265 398.025 114.414 397.976 114.554L397.323 117.121C397.232 117.45 397.04 117.743 396.773 117.958C396.506 118.172 396.18 118.297 395.838 118.313Z" fill="#CAE5FF"/>
<path d="M404.147 118.314H401.586C401.44 118.32 401.295 118.29 401.163 118.227C401.031 118.164 400.916 118.069 400.829 117.952C400.742 117.834 400.686 117.697 400.663 117.552C400.642 117.407 400.655 117.259 400.703 117.121L401.344 114.554C401.436 114.226 401.63 113.936 401.896 113.724C402.163 113.512 402.489 113.39 402.828 113.373H405.389C405.534 113.365 405.679 113.392 405.812 113.454C405.944 113.515 406.059 113.609 406.146 113.726C406.234 113.843 406.291 113.98 406.313 114.124C406.335 114.269 406.321 114.416 406.272 114.554L405.632 117.121C405.539 117.45 405.346 117.742 405.08 117.956C404.814 118.169 404.488 118.295 404.147 118.314Z" fill="#CAE5FF"/>
<path d="M412.442 118.314H409.882C409.735 118.32 409.59 118.29 409.458 118.227C409.327 118.164 409.211 118.069 409.124 117.952C409.037 117.834 408.981 117.697 408.958 117.552C408.937 117.407 408.95 117.259 408.998 117.121L409.652 114.554C409.74 114.226 409.931 113.935 410.195 113.723C410.46 113.51 410.785 113.388 411.123 113.373H413.684C413.829 113.366 413.974 113.394 414.107 113.455C414.239 113.517 414.355 113.61 414.442 113.726C414.531 113.843 414.589 113.979 414.613 114.123C414.637 114.267 414.626 114.415 414.58 114.554L413.927 117.121C413.834 117.45 413.641 117.742 413.375 117.956C413.109 118.169 412.783 118.295 412.442 118.314Z" fill="#CAE5FF"/>
<path d="M393.893 126.156H391.332C391.186 126.162 391.041 126.132 390.909 126.068C390.777 126.005 390.662 125.911 390.575 125.793C390.488 125.675 390.431 125.538 390.409 125.394C390.387 125.249 390.401 125.1 390.449 124.962L391.101 122.395C391.187 122.064 391.376 121.769 391.641 121.554C391.906 121.339 392.233 121.216 392.574 121.201H395.134C395.281 121.197 395.426 121.227 395.558 121.29C395.689 121.353 395.804 121.447 395.892 121.564C395.98 121.682 396.039 121.818 396.063 121.963C396.087 122.108 396.076 122.256 396.03 122.395L395.377 124.962C395.286 125.292 395.094 125.585 394.828 125.799C394.561 126.014 394.234 126.138 393.893 126.156Z" fill="#CAE5FF"/>
<path d="M391.806 134.498H389.245C389.099 134.504 388.954 134.474 388.822 134.411C388.69 134.348 388.575 134.253 388.488 134.136C388.401 134.018 388.345 133.881 388.322 133.736C388.301 133.591 388.314 133.443 388.362 133.305L389.015 130.738C389.1 130.406 389.289 130.112 389.555 129.897C389.82 129.682 390.146 129.558 390.487 129.544H393.048C393.194 129.539 393.339 129.569 393.471 129.632C393.603 129.695 393.718 129.79 393.806 129.907C393.894 130.024 393.952 130.161 393.976 130.305C394 130.45 393.989 130.598 393.944 130.738L393.29 133.305C393.199 133.634 393.007 133.928 392.741 134.142C392.474 134.356 392.147 134.481 391.806 134.498Z" fill="#CAE5FF"/>
<path d="M402.188 126.156H399.627C399.48 126.164 399.334 126.136 399.199 126.073C399.066 126.012 398.949 125.917 398.861 125.799C398.772 125.681 398.715 125.542 398.691 125.397C398.669 125.251 398.683 125.101 398.731 124.962L399.384 122.395C399.473 122.064 399.665 121.77 399.932 121.555C400.199 121.341 400.527 121.217 400.869 121.201H403.43C403.577 121.193 403.723 121.221 403.857 121.284C403.991 121.346 404.107 121.441 404.195 121.558C404.284 121.676 404.342 121.815 404.365 121.96C404.388 122.107 404.374 122.256 404.326 122.395L403.672 124.962C403.584 125.293 403.391 125.587 403.125 125.802C402.858 126.016 402.53 126.141 402.188 126.156Z" fill="#CAE5FF"/>
<path d="M398.552 140.774H395.992C395.845 140.784 395.698 140.759 395.565 140.698C395.431 140.637 395.314 140.544 395.225 140.427C395.136 140.309 395.078 140.172 395.055 140.026C395.032 139.881 395.047 139.732 395.096 139.593L395.749 137.026C395.84 136.696 396.032 136.403 396.299 136.189C396.566 135.975 396.892 135.85 397.234 135.832H399.794C399.94 135.827 400.086 135.858 400.218 135.921C400.349 135.984 400.464 136.078 400.552 136.195C400.64 136.313 400.699 136.45 400.723 136.594C400.747 136.739 400.736 136.887 400.69 137.026L400.037 139.593C399.944 139.921 399.75 140.211 399.484 140.423C399.218 140.634 398.892 140.757 398.552 140.774Z" fill="#CAE5FF"/>
<path opacity="0.9" d="M396.914 209.731H311.143C310.938 209.725 310.736 209.671 310.554 209.576C310.371 209.481 310.213 209.345 310.09 209.18C309.967 209.015 309.884 208.824 309.844 208.621C309.804 208.42 309.811 208.211 309.863 208.011L317.877 177.21C317.949 176.921 318.112 176.663 318.343 176.476C318.575 176.288 318.86 176.18 319.157 176.17H404.928C405.134 176.179 405.335 176.234 405.517 176.331C405.699 176.427 405.857 176.564 405.98 176.73C406.103 176.896 406.187 177.088 406.226 177.291C406.265 177.493 406.259 177.702 406.208 177.903L398.194 208.705C398.12 208.991 397.954 209.246 397.724 209.431C397.494 209.616 397.209 209.722 396.914 209.731Z" fill="#BFD9FF"/>
<path d="M322.907 182.728H352.761" stroke="#A9C2FF" stroke-width="1.68375" stroke-linecap="round" stroke-linejoin="round"/>
<path d="M320.616 196.537H350.457" stroke="#A9C2FF" stroke-width="1.68375" stroke-linecap="round" stroke-linejoin="round"/>
<path d="M333.162 191.327H363.015" stroke="#A9C2FF" stroke-width="1.68375" stroke-linecap="round" stroke-linejoin="round"/>
<path d="M322.153 187.336H331.1" stroke="#A9C2FF" stroke-width="1.68375" stroke-linecap="round" stroke-linejoin="round"/>
<path d="M320.923 191.327H329.872" stroke="#A9C2FF" stroke-width="1.68375" stroke-linecap="round" stroke-linejoin="round"/>
<path d="M357.497 182.728H368.136" stroke="#A9C2FF" stroke-width="1.68375" stroke-linecap="round" stroke-linejoin="round"/>
<path d="M362.708 203.019H346.821C346.803 203.018 346.786 203.012 346.77 203.003C346.754 202.995 346.739 202.983 346.729 202.968C346.718 202.954 346.71 202.937 346.706 202.919C346.702 202.902 346.702 202.883 346.706 202.865L347.423 200.131C347.429 200.105 347.443 200.082 347.465 200.066C347.485 200.05 347.512 200.041 347.538 200.042H363.425C363.444 200.04 363.462 200.044 363.48 200.052C363.497 200.06 363.512 200.072 363.524 200.087C363.535 200.103 363.542 200.12 363.545 200.139C363.548 200.159 363.546 200.178 363.54 200.196L362.823 202.929C362.817 202.955 362.803 202.979 362.781 202.995C362.76 203.011 362.734 203.019 362.708 203.019Z" stroke="#84AEE5" stroke-width="0.56125" stroke-miterlimit="10"/>
<path d="M342.968 203.019H327.082C327.062 203.02 327.043 203.016 327.026 203.008C327.009 203 326.994 202.988 326.983 202.973C326.971 202.958 326.963 202.94 326.961 202.921C326.958 202.902 326.959 202.883 326.966 202.865L327.683 200.131C327.685 200.118 327.688 200.105 327.696 200.093C327.702 200.081 327.711 200.071 327.722 200.062C327.732 200.054 327.744 200.047 327.758 200.044C327.771 200.04 327.784 200.039 327.798 200.042H343.685C343.704 200.04 343.723 200.044 343.74 200.052C343.757 200.06 343.773 200.072 343.784 200.087C343.795 200.103 343.803 200.12 343.805 200.139C343.808 200.158 343.806 200.177 343.8 200.196L343.083 202.929C343.075 202.954 343.06 202.976 343.039 202.992C343.019 203.008 342.994 203.018 342.968 203.019Z" stroke="#84AEE5" stroke-width="0.56125" stroke-miterlimit="10"/>
<path d="M390.629 199.053C389.809 197.963 386.506 197.167 385.597 196.088C385.183 195.338 385.056 194.462 385.239 193.625C385.519 193.457 385.774 193.249 385.994 193.008C386.33 192.504 386.629 191.977 386.89 191.43C386.939 191.482 386.999 191.523 387.065 191.549C387.132 191.577 387.203 191.588 387.274 191.584C387.71 191.584 389.361 189.325 388.926 188.799C388.682 188.504 388.298 188.799 388.004 189.043C388.44 188.042 388.746 187.272 388.746 187.272C388.746 187.144 388.824 187.015 388.849 186.887C389.043 186.331 389.097 185.736 389.007 185.155C388.918 184.573 388.688 184.022 388.337 183.55C387.985 183.079 387.524 182.702 386.992 182.45C386.461 182.2 385.877 182.083 385.29 182.112C383.923 182.179 382.611 182.676 381.543 183.533C380.474 184.391 379.702 185.564 379.337 186.887L379.26 187.272C379.26 187.272 379.184 188.042 379.12 189.043C378.967 188.76 378.697 188.504 378.313 188.799C377.622 189.325 378.16 191.571 378.582 191.584C378.748 191.582 378.909 191.528 379.043 191.43C379.038 191.958 379.072 192.485 379.145 193.008C379.281 193.307 379.494 193.563 379.76 193.753C379.459 194.653 378.93 195.457 378.224 196.088C376.778 197.167 373.103 197.963 371.721 199.053C370.577 200.326 369.706 201.82 369.16 203.443H390.923C391.026 202.878 391.358 200.029 390.629 199.053Z" fill="#387AB6"/>
<path d="M280.624 198.733H210.215C204.045 198.733 200.281 193.714 201.817 187.516C203.366 181.329 209.614 176.312 215.797 176.312H286.205C292.376 176.312 296.139 181.329 294.604 187.516C293.054 193.714 286.794 198.733 280.624 198.733Z" fill="white"/>
<path d="M217.705 190.454L214.696 191.854C214.402 191.995 214.171 191.776 214.287 191.494L215.567 188.517C215.592 188.469 215.606 188.417 215.606 188.363C215.606 188.308 215.592 188.256 215.567 188.208L213.928 186.103C213.774 185.899 213.928 185.565 214.261 185.513L217.359 185.077C217.418 185.071 217.475 185.052 217.526 185.021C217.578 184.99 217.621 184.947 217.653 184.897L219.663 182.189C219.855 181.933 220.213 181.933 220.278 182.189L220.943 184.897C220.954 184.945 220.98 184.988 221.016 185.021C221.053 185.053 221.099 185.073 221.148 185.077L224.028 185.513C224.297 185.513 224.323 185.899 224.028 186.103L221.353 188.208C221.303 188.245 221.262 188.291 221.231 188.344C221.2 188.397 221.181 188.456 221.174 188.517L220.943 191.494C220.943 191.776 220.572 191.995 220.354 191.854L218.037 190.454C217.986 190.426 217.929 190.412 217.871 190.412C217.812 190.412 217.755 190.426 217.705 190.454Z" fill="#FFA402"/>
<path d="M232.567 190.454L229.546 191.854C229.264 191.995 229.021 191.776 229.149 191.494L230.429 188.517C230.457 188.47 230.472 188.417 230.472 188.363C230.472 188.308 230.457 188.255 230.429 188.208L228.803 186.103C228.65 185.899 228.803 185.565 229.136 185.513L232.221 185.077C232.282 185.07 232.341 185.05 232.393 185.019C232.446 184.988 232.492 184.947 232.528 184.897L234.538 182.189C234.73 181.933 235.089 181.933 235.153 182.189L235.818 184.897C235.827 184.946 235.852 184.991 235.889 185.023C235.926 185.056 235.974 185.075 236.023 185.077L238.904 185.513C239.172 185.513 239.198 185.899 238.904 186.103L236.215 188.208C236.124 188.287 236.064 188.397 236.049 188.517L235.818 191.494C235.818 191.776 235.447 191.995 235.229 191.854L232.913 190.454C232.86 190.424 232.8 190.408 232.739 190.408C232.679 190.408 232.619 190.424 232.567 190.454Z" fill="#FFA402"/>
<path d="M247.43 190.454L244.409 191.854C244.127 191.995 243.883 191.776 243.999 191.494L245.279 188.517C245.307 188.47 245.322 188.417 245.322 188.363C245.322 188.308 245.307 188.255 245.279 188.208L243.64 186.103C243.486 185.899 243.64 185.565 243.986 185.513L247.071 185.077C247.132 185.07 247.19 185.05 247.243 185.019C247.296 184.988 247.342 184.947 247.379 184.897L249.388 182.189C249.58 181.933 249.938 181.933 250.003 182.189L250.655 184.897C250.666 184.947 250.694 184.992 250.734 185.024C250.773 185.057 250.822 185.075 250.873 185.077L253.74 185.513C254.009 185.513 254.048 185.899 253.74 186.103L251.052 188.208C251.003 188.244 250.962 188.29 250.933 188.343C250.904 188.397 250.888 188.456 250.886 188.517L250.655 191.494C250.655 191.776 250.284 191.995 250.067 191.854L247.749 190.454C247.7 190.429 247.645 190.415 247.589 190.415C247.534 190.415 247.478 190.429 247.43 190.454Z" fill="#FFA402"/>
<path d="M262.279 190.454L259.271 191.854C258.99 191.995 258.746 191.776 258.861 191.494L260.141 188.517C260.168 188.469 260.181 188.417 260.181 188.363C260.181 188.308 260.168 188.256 260.141 188.208L258.503 186.103C258.349 185.899 258.503 185.565 258.835 185.513L261.934 185.077C261.995 185.07 262.053 185.05 262.106 185.019C262.158 184.988 262.205 184.947 262.241 184.897L264.238 182.189C264.43 181.933 264.801 181.933 264.852 182.189L265.518 184.897C265.529 184.945 265.554 184.988 265.591 185.021C265.628 185.053 265.674 185.073 265.723 185.077L268.603 185.513C268.872 185.513 268.898 185.899 268.603 186.103L265.928 188.208C265.878 188.245 265.837 188.291 265.807 188.344C265.775 188.397 265.756 188.456 265.748 188.517L265.518 191.494C265.513 191.561 265.493 191.627 265.458 191.685C265.422 191.742 265.374 191.791 265.316 191.826C265.259 191.862 265.193 191.882 265.126 191.887C265.059 191.892 264.991 191.88 264.93 191.854L262.612 190.454C262.561 190.426 262.504 190.412 262.446 190.412C262.388 190.412 262.33 190.426 262.279 190.454Z" fill="#FFA402"/>
<path d="M277.142 190.454L274.121 191.854C273.839 191.995 273.596 191.776 273.724 191.494L275.004 188.517C275.03 188.469 275.043 188.417 275.043 188.363C275.043 188.308 275.03 188.256 275.004 188.208L273.365 186.103C273.212 185.899 273.365 185.565 273.698 185.513L276.796 185.077C276.855 185.07 276.912 185.05 276.962 185.019C277.013 184.987 277.057 184.947 277.091 184.897L279.1 182.189C279.293 181.933 279.651 181.933 279.715 182.189L280.38 184.897C280.392 184.945 280.417 184.988 280.454 185.021C280.491 185.053 280.537 185.073 280.586 185.077L283.466 185.513C283.735 185.513 283.76 185.899 283.466 186.103L280.79 188.208C280.741 188.245 280.7 188.291 280.669 188.344C280.638 188.397 280.618 188.456 280.611 188.517L280.38 191.494C280.38 191.776 280.01 191.995 279.792 191.854L277.513 190.454C277.457 190.419 277.394 190.401 277.327 190.401C277.262 190.401 277.197 190.419 277.142 190.454Z" fill="#C2D4D9"/>
<path d="M107.572 155.469C110.782 155.469 113.384 151.826 113.384 147.332C113.384 142.838 110.782 139.195 107.572 139.195C104.363 139.195 101.76 142.838 101.76 147.332C101.76 151.826 104.363 155.469 107.572 155.469Z" fill="#202F7C"/>
<path d="M108.443 148.038C108.443 148.038 124.662 166.005 124.662 168.893C124.662 171.781 119.375 171.37 119.375 171.37" stroke="#202F7C" stroke-width="1.71493" stroke-miterlimit="10"/>
<path d="M120.617 171.37C120.62 171.792 120.497 172.205 120.265 172.557C120.033 172.909 119.702 173.184 119.314 173.347C118.926 173.51 118.498 173.554 118.085 173.473C117.672 173.393 117.292 173.191 116.994 172.894C116.695 172.596 116.492 172.216 116.409 171.803C116.326 171.389 116.367 170.96 116.527 170.57C116.687 170.18 116.96 169.847 117.31 169.612C117.659 169.377 118.071 169.252 118.492 169.252C118.77 169.251 119.047 169.304 119.304 169.409C119.562 169.515 119.796 169.671 119.994 169.868C120.191 170.065 120.348 170.299 120.455 170.557C120.562 170.815 120.617 171.091 120.617 171.37Z" fill="#202F7C"/>
<path d="M79.6005 382.401C85.3612 392.36 103.437 399.637 124.854 399.637C146.271 399.637 164.347 392.36 170.107 382.401H79.6005Z" fill="#9C31E9"/>
<path d="M201.78 331.283L190.923 381.49H184.28L190.322 332.503L201.78 331.283Z" fill="#A9A7E7"/>
<path d="M124.47 323.402H212.033C214.593 323.402 217.048 324.422 218.859 326.237C220.668 328.052 221.686 330.513 221.686 333.08V335.505H124.47V323.402Z" fill="#7A82CC"/>
<path d="M44.9083 376.048L21.3918 262.595C21.1731 261.54 21.1916 260.45 21.4458 259.404C21.7001 258.356 22.1838 257.379 22.8618 256.544C23.5397 255.708 24.395 255.034 25.3653 254.572C26.3356 254.108 27.3965 253.868 28.4711 253.868H106.33C108.411 253.868 110.426 254.587 112.04 255.903C113.654 257.219 114.765 259.052 115.189 261.094L139.025 376.048" fill="#A9A7E7"/>
<path d="M204.801 388.484H56.9546C54.526 388.485 52.1626 387.696 50.2192 386.236C48.2757 384.775 46.857 382.723 46.1757 380.386L44.8955 376.048H204.801V388.484Z" fill="#A9A7E7"/>
<path d="M132.1 394.196H120.336V499.435H132.1V394.196Z" fill="#E2E7FF"/>
<path d="M132.1 413.703L120.336 423.226V394.196H132.1V413.703Z" fill="#9C31E9"/>
<path d="M131.729 483.752H127.427H126.352H122.051L77.9493 501.309H175.83L131.729 483.752Z" fill="#E2E7FF"/>
<path d="M31.7614 261.632H101.735" stroke="#4F57A0" stroke-width="1.55903" stroke-miterlimit="10"/>
<path d="M108.993 269.756L120.937 330.077" stroke="#4F57A0" stroke-width="1.55903" stroke-miterlimit="10"/>
<path d="M123.075 340.768L125.635 358.311" stroke="#4F57A0" stroke-width="1.55903" stroke-miterlimit="10"/>
<path d="M449.311 160.243H392.984C392.299 160.242 391.623 160.093 391.002 159.805C390.381 159.518 389.829 159.098 389.385 158.576C388.941 158.054 388.615 157.441 388.429 156.781C388.244 156.12 388.204 155.428 388.311 154.751L388.746 152.042C388.923 150.928 389.491 149.914 390.348 149.182C391.204 148.45 392.294 148.049 393.419 148.051H449.746C450.429 148.05 451.105 148.197 451.726 148.484C452.348 148.771 452.9 149.188 453.344 149.71C453.788 150.23 454.114 150.842 454.3 151.502C454.486 152.161 454.526 152.854 454.419 153.531L453.983 156.239C453.807 157.354 453.239 158.37 452.383 159.104C451.527 159.838 450.437 160.242 449.311 160.243Z" fill="#CAE5FF"/>
<path d="M395.327 154.249H443.973" stroke="white" stroke-width="3.11805" stroke-miterlimit="10"/>
<path d="M244.05 90.079H228.688C221.391 90.079 214.209 96.0085 212.661 103.337C211.098 110.665 215.758 116.607 223.068 116.607H226.409C227.388 119.073 229.135 121.156 231.392 122.544C233.649 123.932 236.293 124.55 238.929 124.307C237.667 121.933 236.979 119.296 236.919 116.607H238.43C245.74 116.607 252.921 110.665 254.47 103.337C256.02 95.9957 251.36 90.079 244.05 90.079Z" fill="#9C31E9"/>
<path d="M222.159 100.77H236.676" stroke="white" stroke-width="3.11805" stroke-miterlimit="10"/>
<path d="M220.943 106.545H244.511" stroke="white" stroke-width="3.11805" stroke-miterlimit="10"/>
</g>
<defs>
<clipPath id="clip0_4_95">
<rect width="460" height="502" fill="white"/>
</clipPath>
</defs>
</svg>
