<svg width="501" height="466" viewBox="0 0 501 466" fill="none" xmlns="http://www.w3.org/2000/svg">
<path d="M456.895 266.268C451.914 381.355 356.184 414.12 236.952 416.585C55.1279 420.344 33.9666 358.561 33.9666 243.346C33.9666 128.131 73.6041 9.1768 178.704 17.9477C228.638 22.1152 285.313 110.63 327.747 140.002C386.358 180.573 460.637 179.815 456.895 266.268Z" fill="#F8D0FF"/>
<path opacity="0.42" d="M31.1678 314.475C31.1678 314.475 69.0389 296.803 86.4523 239.176C103.866 181.55 135.432 133.023 195.241 129.764C255.051 126.504 319.743 130.51 341.115 96.167C362.488 61.8239 316.811 61.0388 316.167 121.294C315.524 181.549 413.954 292.048 419.102 377.855C424.248 463.66 357.792 446.629 275.219 412.14C192.646 377.651 106.453 445.91 52.7277 420.381C-0.99858 394.854 1.33304 340.247 31.1678 314.475Z" stroke="#4F0188" stroke-miterlimit="10"/>
<path opacity="0.42" d="M39.2077 247.692C51.2018 247.692 60.9252 237.293 60.9252 224.464C60.9252 211.636 51.2018 201.236 39.2077 201.236C27.2134 201.236 17.4902 211.636 17.4902 224.464C17.4902 237.293 27.2134 247.692 39.2077 247.692Z" fill="#4F0188"/>
<path opacity="0.42" d="M58.8083 245.428C69.6346 233.849 69.6346 215.075 58.8083 203.496C47.982 191.916 30.4291 191.916 19.6027 203.496C8.77646 215.075 8.77646 233.849 19.6027 245.428C30.4291 257.007 47.982 257.007 58.8083 245.428Z" stroke="#4F0188" stroke-miterlimit="10"/>
<path opacity="0.42" d="M451.694 266.268C465.683 266.268 477.024 254.139 477.024 239.176C477.024 224.213 465.683 212.084 451.694 212.084C437.704 212.084 426.363 224.213 426.363 239.176C426.363 254.139 437.704 266.268 451.694 266.268Z" fill="#4F0188"/>
<path opacity="0.42" d="M274.778 166.103L267.939 177.715H282.498L274.778 166.103Z" stroke="#4F0188" stroke-miterlimit="10"/>
<path opacity="0.42" d="M178.342 57.9814L169.208 73.493H188.655L178.342 57.9814Z" fill="#4F0188"/>
<path opacity="0.42" d="M246.805 89.3177C261.394 89.3177 273.219 76.6693 273.219 61.0665C273.219 45.4635 261.394 32.8151 246.805 32.8151C232.216 32.8151 220.39 45.4635 220.39 61.0665C220.39 76.6693 232.216 89.3177 246.805 89.3177Z" fill="#4F0188"/>
<path d="M246.285 57.5682L244.8 54.529C243.846 52.5771 244.552 50.1676 246.377 49.1465C247.621 48.4517 248.102 46.8093 247.452 45.4787L245.23 40.9307C244.58 39.6001 243.045 39.0848 241.801 39.7807L239.865 40.8621C238.043 41.8807 236.556 43.4762 235.612 45.4305L235.047 46.5998C234.072 48.6143 234.076 51.0117 235.059 53.0214L239.212 61.5202L241.984 67.1941L246.137 75.6928C247.12 77.7037 248.958 79.0765 251.061 79.3703L252.281 79.5413C254.321 79.8266 256.393 79.4329 258.217 78.4142L260.152 77.3329C261.396 76.6381 261.877 74.9956 261.227 73.6651L259.005 69.1171C258.355 67.7865 256.819 67.2711 255.575 67.9671C253.75 68.987 251.497 68.232 250.544 66.2801L249.059 63.2409L246.285 57.5682Z" fill="white"/>
<path opacity="0.42" d="M440.01 379.715C440.01 382.945 437.561 385.564 434.542 385.564C431.522 385.564 429.073 382.945 429.073 379.715C429.073 376.485 431.522 373.867 434.542 373.867C437.561 373.867 440.01 376.486 440.01 379.715Z" stroke="#4F0188" stroke-miterlimit="10"/>
<path opacity="0.42" d="M113.09 70.3636C118.672 70.3636 123.198 65.5235 123.198 59.5529C123.198 53.5823 118.672 48.7422 113.09 48.7422C107.507 48.7422 102.982 53.5823 102.982 59.5529C102.982 65.5235 107.507 70.3636 113.09 70.3636Z" fill="white"/>
<path opacity="0.42" d="M389.07 220.606C394.652 220.606 399.178 215.765 399.178 209.795C399.178 203.825 394.652 198.984 389.07 198.984C383.487 198.984 378.962 203.825 378.962 209.795C378.962 215.765 383.487 220.606 389.07 220.606Z" stroke="#4F0188" stroke-miterlimit="10"/>
<path opacity="0.42" d="M70.7863 282.207C76.2275 282.207 80.6386 277.489 80.6386 271.67C80.6386 265.85 76.2275 261.132 70.7863 261.132C65.345 261.132 60.934 265.85 60.934 271.67C60.934 277.489 65.345 282.207 70.7863 282.207Z" fill="#4F0188"/>
<path opacity="0.42" d="M451.695 257.864C461.344 257.864 469.168 249.497 469.168 239.176C469.168 228.854 461.344 220.488 451.695 220.488C442.044 220.488 434.222 228.854 434.222 239.176C434.222 249.497 442.044 257.864 451.695 257.864Z" stroke="white" stroke-miterlimit="10"/>
<path opacity="0.42" d="M436.843 62.1528H315.747C310.574 62.1528 306.379 66.6382 306.379 72.1724V150.406C306.379 155.939 310.573 160.426 315.747 160.426H392.974V180.148C392.974 183.449 396.581 185.244 398.942 183.119L424.153 160.426H436.843C442.016 160.426 446.211 155.94 446.211 150.406V72.1724C446.211 66.6382 442.017 62.1528 436.843 62.1528Z" fill="#4F0188"/>
<path d="M467.513 71.9098C467.513 83.602 464.372 94.4994 458.956 103.651C458.101 105.12 457.178 106.553 456.198 107.925C446.302 121.821 430.822 130.768 413.427 130.768C404.499 130.768 396.078 128.42 388.659 124.241C371.242 114.464 359.342 94.6921 359.342 71.9098C359.342 69.2487 359.5 66.6237 359.826 64.0468C363.35 35.256 386.013 13.0397 413.427 13.0397C443.295 13.0397 467.513 39.3982 467.513 71.9098Z" fill="#790EC6"/>
<path d="M456.198 107.921C446.302 121.816 430.822 130.763 413.427 130.763C404.5 130.763 396.078 128.415 388.659 124.237C389.672 121.527 392.78 114.339 398.285 110.317C405.153 105.284 426.026 102.261 440.504 103.586C449.049 104.357 453.766 106.392 456.198 107.921Z" fill="#C6606C"/>
<path d="M389.069 42.0498L389.635 70.7937C389.635 70.7937 390.488 100.159 412.833 99.6387C435.178 99.1186 439.898 62.8416 439.898 62.8416L436.383 40.8324C436.383 40.8324 410.265 22.19 389.069 42.0498Z" fill="white"/>
<path d="M412.984 92.7308C412.984 92.7308 414.643 103.845 412.14 107.48C409.635 111.114 417.112 123.742 417.112 123.742L434.414 106.766C434.414 106.766 433.265 94.3214 433.578 83.4228L412.984 92.7308Z" fill="white"/>
<path d="M389.197 48.6529C389.197 48.6529 395.627 50.842 402.502 50.1978C409.378 49.5524 411.791 46.5854 411.791 46.5854C411.791 46.5854 414.083 47.6174 417.822 47.6174C421.561 47.6174 424.336 45.6823 424.336 45.6823C424.336 45.6823 421.803 50.3267 422.888 56.2618C423.973 62.197 427.593 63.7443 427.593 63.7443C427.593 63.7443 429.885 57.8092 433.865 57.8092C437.845 57.8092 439.294 62.3247 438.268 68.2598C437.242 74.1938 430.849 75.6135 430.849 75.6135L433.574 83.4223C433.574 83.4223 443.876 71.6146 445.083 58.5834C446.289 45.5535 440.137 41.6822 440.137 41.6822C440.137 41.6822 440.65 32.0058 428.572 28.6522C416.494 25.2987 408.532 25.5564 399.486 31.1039C399.486 31.1039 391.887 24.911 385.493 28.6522C379.099 32.3935 380.91 40.3926 384.045 42.4564C384.045 42.4564 377.894 44.1338 379.22 52.2617C380.546 60.3896 389.414 59.7538 389.414 59.7538L389.197 48.6529Z" fill="#410071"/>
<path d="M412.833 99.6389C412.833 99.6389 429.073 95.0427 430.682 83.4228C430.682 83.4228 434.709 100.271 412.833 105.991C412.833 105.991 413.479 100.985 412.833 99.6389Z" fill="#D9D9D9"/>
<path opacity="0.42" d="M496.456 36.1599C498.709 21.4165 489.361 7.51113 475.576 5.10146C461.791 2.69178 448.79 12.6902 446.536 27.4337C444.283 42.1771 453.632 56.0824 467.417 58.4921C481.202 60.9018 494.203 50.9033 496.456 36.1599Z" fill="#4F0188"/>
<path d="M468.647 39.0779L468.555 37.8196C468.284 35.2066 469.099 32.3504 471.361 29.4472C473.398 26.8824 474.529 24.9943 474.529 22.8173C474.529 20.3488 473.081 18.7039 470.232 18.6558C468.603 18.6558 466.792 19.2362 465.661 20.1561L464.574 17.1073C466.067 15.9465 468.647 15.1722 471.045 15.1722C476.248 15.1722 478.601 18.6088 478.601 22.2862C478.601 25.5771 476.881 27.9481 474.709 30.7067C472.718 33.2234 471.996 35.3523 472.131 37.8208L472.176 39.0791L468.647 39.0779ZM467.653 45.8536C467.653 44.063 468.782 42.8047 470.366 42.8047C471.949 42.8047 473.035 44.063 473.035 45.8536C473.035 47.5478 471.996 48.8543 470.322 48.8543C468.738 48.8543 467.653 47.5478 467.653 45.8536Z" fill="white"/>
<path d="M428.498 349.8C428.417 350.074 428.317 350.304 428.196 350.491C426.061 353.802 423.804 357.014 421.427 360.128H421.416C344.144 461.692 145.417 461.692 145.417 461.692V340.47H428.196C428.196 340.47 429.284 347.07 428.498 349.8Z" fill="#8C2BD2"/>
<path d="M428.498 349.8C428.417 350.074 428.317 350.304 428.196 350.491C426.061 353.802 423.804 357.014 421.427 360.128H421.416L145.417 393.719V349.801H428.498V349.8Z" fill="#761DB7"/>
<path d="M275.219 254.721L261.54 270.231C261.54 270.231 258.737 267.148 255.382 262.428C253.783 260.164 252.06 257.527 250.473 254.673C248.39 250.94 246.521 246.846 245.452 242.74C241.849 228.953 243.324 199.873 243.324 199.873C243.324 199.873 249.156 200.547 251.149 202.92C262.373 216.285 275.219 254.721 275.219 254.721Z" fill="#FF6A76"/>
<path d="M223.798 305.388H125.846L116.901 224.83C115.873 215.61 121.887 207.212 130.349 206.039L136.242 205.217L211.087 194.813L223.798 305.388Z" fill="#4F0188"/>
<path d="M199.88 197.477C199.88 197.477 168.005 208.44 166.278 211.259C164.551 214.078 179.517 264.04 179.517 264.04L176.639 305.388H241.541L244.811 265.931C244.811 265.931 251.758 257.776 252.189 244.307C252.62 230.837 243.318 199.874 243.318 199.874L220.673 196.694L199.88 197.477Z" fill="#FF6A76"/>
<path d="M209.004 119.869C209.004 119.869 186.785 109.652 171.014 133.493C155.242 157.333 171.576 194.813 171.576 194.813C171.576 194.813 211.821 189.194 222.961 188.045C234.101 186.896 236.354 186.896 236.354 186.896C236.354 186.896 242.093 149.244 229.845 135.401C217.596 121.556 209.004 119.869 209.004 119.869Z" fill="#410071"/>
<path d="M217.27 212.854L198.513 199.102C198.513 199.102 200.055 193.84 199.673 188.578C199.583 187.41 199.402 186.242 199.087 185.134C198.93 184.581 198.738 184.039 198.513 183.509L217.27 182.509C217.27 182.509 217.393 184.135 217.742 186.23C218.024 187.868 218.44 189.794 219.071 191.468C219.521 192.708 220.084 193.804 220.782 194.563C223.654 197.682 217.27 212.854 217.27 212.854Z" fill="white"/>
<path d="M219.073 191.468C216.664 191.552 206.317 191.721 199.675 188.578C199.585 187.41 199.405 186.242 199.09 185.134C199.09 185.134 211.733 186.784 217.745 186.23C218.026 187.868 218.443 189.794 219.073 191.468Z" fill="#D9D9D9"/>
<path d="M227.823 128.918L230.95 156.565C230.95 156.565 235.049 185.054 213.554 187.818C192.06 190.583 184.834 164.009 184.834 164.009L182.294 134.661C182.294 134.661 204.961 112.968 227.823 128.918Z" fill="white"/>
<path d="M218.024 131.062C218.024 131.062 215.213 138.459 205.964 143.705C197.766 148.357 190.073 149.64 190.073 149.64C190.073 149.64 188.839 157.426 184.687 162.312C184.687 162.312 177.506 147.74 180.437 135.192C183.368 122.645 198.512 116.583 211.799 117.859C225.086 119.136 229.875 124.346 231.633 132.64C233.392 140.934 230.448 152.128 230.448 152.128C230.448 152.128 227.627 133.642 218.024 131.062Z" fill="#410071"/>
<path d="M182.293 156.217C182.293 156.217 179.734 135.192 194.897 124.027C204.771 116.757 217.196 118.692 217.196 118.692C217.196 118.692 209.357 112.381 193.92 119.667C178.482 126.953 177.701 143.428 179.265 156.217H182.293Z" fill="#68A8DE"/>
<path d="M148.188 305.388H125.846L116.901 224.83C115.873 215.61 121.887 207.212 130.349 206.039L136.242 205.217L148.188 305.388Z" fill="#B74AEA"/>
<path d="M203.258 182.753C193.004 182.753 185.392 175.117 185.052 174.77L186.429 173.17C186.512 173.254 194.832 181.563 205.232 180.456L205.429 182.638C204.693 182.717 203.969 182.753 203.258 182.753Z" fill="#375C93"/>
<path d="M457.359 350.492H150.035C141.816 350.492 133.985 346.863 128.515 340.517L111.636 320.94C105.088 313.345 110.301 301.314 120.14 301.314H420.159C430.528 301.314 440.492 305.478 447.95 312.928L465.274 330.233C472.643 337.595 467.604 350.492 457.359 350.492Z" fill="#882EC9"/>
<path d="M317.21 204.504C316.656 204.826 315.788 205.369 314.842 205.972L314.66 205.659C317.47 203.743 321.633 200.751 321.352 200.02C320.929 198.923 318.818 199.496 317.25 200.406C316.345 200.933 314.701 201.978 313.117 203.003L313.002 202.805C315.79 200.921 320.442 197.631 320.146 196.859C319.724 195.762 317.613 196.335 316.044 197.246C315.051 197.822 313.171 199.024 311.454 200.137L311.32 199.907C314.088 197.998 317.694 195.348 317.431 194.665C317.009 193.568 314.898 194.141 313.33 195.052C311.216 196.28 305.075 200.341 305.075 200.341L300.603 202.083C301.568 200.405 304.283 194.212 303.016 194.212C301.749 194.212 298.251 198.534 296.804 202.986C295.719 206.319 295.583 209.291 295.582 210.573L256.395 263.832C256.395 263.832 257.324 265.391 258.725 267.465C262.791 273.479 272.258 274.802 277.724 270.229C282.042 266.618 285.451 261.849 288.788 256.977C295.077 247.796 304.455 223.444 306.659 217.614L315.529 208.722C317.959 207.042 321.058 204.755 320.829 204.161C320.459 203.194 318.594 203.7 317.21 204.504Z" fill="white"/>
<path d="M214.121 314.262C214.121 314.262 218.705 317.875 220.514 322.777C222.324 327.679 210.743 330.836 191.412 323.816C177.347 318.709 201.094 303.038 214.121 314.262Z" fill="#410071"/>
<path d="M206.841 184.072H204.25C203.326 184.072 202.577 183.257 202.577 182.252V180.549C202.577 179.544 203.326 178.728 204.25 178.728H206.841C207.765 178.728 208.514 179.544 208.514 180.549V181.4V182.252C208.514 183.257 207.765 184.072 206.841 184.072Z" fill="#410071"/>
<path d="M193.368 162.452C194.801 170.114 191.072 177.408 185.04 178.744C179.008 180.08 172.956 174.952 171.524 167.29C170.092 159.628 173.82 152.335 179.852 150.998C185.883 149.663 191.936 154.79 193.368 162.452Z" fill="#4F0188"/>
<path d="M187.29 163.798C188.135 168.318 185.935 172.621 182.378 173.409C178.82 174.197 175.25 171.173 174.404 166.652C173.559 162.133 175.759 157.83 179.316 157.042C182.874 156.255 186.444 159.279 187.29 163.798Z" fill="#68A8DE"/>
<path d="M171.528 208.243C171.528 208.243 166.053 209.121 163.832 212.903C154.311 229.113 135.77 278.682 135.77 278.682L153.648 287.14C153.648 287.14 177.155 258.009 179.313 244.149C181.473 230.288 171.528 208.243 171.528 208.243Z" fill="#FF6A76"/>
<path d="M151.958 282.911L188.654 308.44L183.473 320.734C183.473 320.734 150.446 308.049 140.301 299.826C130.156 291.603 135.769 278.682 135.769 278.682C135.769 278.682 141.381 277.978 151.958 282.911Z" fill="white"/>
<path d="M187.575 308.049C187.575 308.049 199.952 307.423 204.412 307.423C208.873 307.423 216.645 315.253 215.781 317.759C214.918 320.265 205.995 312.591 205.995 312.591L205.492 313.608C205.492 313.608 213.407 318.777 213.838 320.734C214.269 322.692 212.471 322.379 209.881 321.204C207.29 320.03 203.405 317.366 203.405 317.366L202.974 317.914C202.974 317.914 210.457 322.848 210.457 324.649C210.457 326.45 205.061 324.414 201.104 321.595L200.6 322.456C200.6 322.456 205.493 325.119 205.852 326.842C206.213 328.565 203.55 327.861 200.6 326.372C197.651 324.884 194.916 324.727 191.103 324.101C187.29 323.475 182.765 320.457 182.765 320.457L187.575 308.049Z" fill="white"/>
<path d="M415.08 236.441L397.482 330.837H267.104L284.601 236.986C284.97 235.002 286.572 233.578 288.431 233.578H412.928C414.316 233.577 415.356 234.96 415.08 236.441Z" fill="#4F0188"/>
<path d="M267.104 330.837L231.286 318.376C230.021 317.935 229.164 316.674 229.164 315.251C229.164 313.436 230.54 311.965 232.237 311.965H270.622L267.104 330.837Z" fill="#410071"/>
<path d="M173.116 212.078C173.116 212.078 181.136 236.331 176.275 252.978C176.275 252.978 192.669 233.489 173.116 212.078Z" fill="#C6606C"/>
<path d="M255.381 262.428C253.782 260.164 252.059 257.527 250.472 254.673C253.782 240.765 246.081 209.795 246.081 209.795C262.957 232.806 258.251 254.18 255.381 262.428Z" fill="#C6606C"/>
<path d="M292.447 239.176L397.482 330.837H277.727L292.447 239.176Z" fill="#691E9F"/>
<path d="M355.576 297.593C360.925 295.241 363.476 288.694 361.275 282.973C359.074 277.251 352.954 274.521 347.605 276.875C342.256 279.228 339.704 285.775 341.905 291.496C344.106 297.218 350.226 299.947 355.576 297.593Z" fill="#BA68C8"/>
<path d="M199.551 193.569L217.272 212.854C217.272 212.854 214.198 217.504 209.081 217.375C203.964 217.246 201.09 210.29 199.642 206.67C198.194 203.052 195.24 199.102 195.24 199.102L199.551 193.569Z" fill="#FFA9B3"/>
<path d="M217.27 212.854C217.27 212.854 221.836 215.824 226.299 213.76C230.762 211.696 229.556 208.542 227.988 205.216C226.419 201.89 224.731 195.956 224.731 195.956L219.643 192.819C219.643 192.819 220.545 205.496 217.27 212.854Z" fill="#FFA9B3"/>
<path d="M244.594 250.1L199.941 254.72C199.941 254.72 209.953 262.399 225.366 260.076C240.779 257.755 244.594 250.1 244.594 250.1Z" fill="#C6606C"/>
<path opacity="0.42" d="M144.787 94.8162H64.0385C58.8911 94.8162 54.7188 99.2787 54.7188 104.784V127.676C54.7188 133.181 58.8911 137.643 64.0385 137.643H132.059L154.108 151.274V137.643V131.053V104.784C154.106 99.2787 149.934 94.8162 144.787 94.8162Z" fill="#4F0188"/>
<path d="M60.9242 105.173H145.038" stroke="white" stroke-miterlimit="10" stroke-linecap="round" stroke-linejoin="round"/>
<path d="M60.9242 116.156H145.038" stroke="white" stroke-miterlimit="10" stroke-linecap="round" stroke-linejoin="round"/>
<path d="M60.9242 127.137H145.038" stroke="white" stroke-miterlimit="10" stroke-linecap="round" stroke-linejoin="round"/>
<path d="M149.409 360.99C151.523 342.304 137.733 345.112 128.302 354.969C118.872 364.826 109.626 359.322 120.087 340.907C130.547 322.493 138.207 316.827 136.758 307.555C135.309 298.283 127.748 302.338 114.667 310.05C101.585 317.763 113.949 297.628 112.96 278.527C111.972 259.427 94.2392 268.97 92.7486 285.048C91.258 301.125 97.9703 319.127 89.3643 315.555C80.7584 311.984 75.5536 290.629 67.7279 300.711C59.9021 310.793 89.8169 344.972 88.8115 355.293C87.8061 365.613 66.2845 334.165 60.1014 344.52C53.9183 354.874 80.6694 424.019 103.828 422.082C133.25 419.62 147.297 379.676 149.409 360.99Z" fill="#55098B"/>
<path d="M101.737 287.294C101.737 287.294 98.0386 308.916 99.518 336.34C100.997 363.765 104.349 432.765 104.349 432.765" stroke="#AF58EE" stroke-miterlimit="10"/>
<path d="M76.5892 314.475C76.5892 314.475 93.5849 336.049 99.7568 340.81C99.7568 340.81 121.707 318.188 125.898 314.475" stroke="#AF58EE" stroke-miterlimit="10"/>
<path d="M66.55 357.67C66.55 357.67 92.1067 385.166 102.1 386.991L139.705 360.029" stroke="#AF58EE" stroke-miterlimit="10"/>
<path d="M93.7834 411.461C93.7834 411.461 104.861 385.263 98.8925 371.186C92.9244 357.11 84.3668 365.371 81.6795 376.589C78.9921 387.808 70.3096 388.162 70.3073 370.469C70.3051 352.775 73.4214 345.305 68.7075 339.459C63.9936 333.613 60.3042 339.907 54.1999 351.287C48.0956 362.667 48.7418 342.898 40.4331 329.944C32.1232 316.99 23.4846 331.776 28.8493 343.738C34.2139 355.701 46.1028 365.272 38.6396 366.691C31.1764 368.111 19.0072 355.498 17.5357 366.142C16.0642 376.787 50.6861 387.128 54.0963 394.828C57.5065 402.529 29.8625 390.278 29.6531 400.364C29.4426 410.45 61.6091 428.155 76.1696 425.519C90.729 422.884 93.7834 411.461 93.7834 411.461Z" fill="#55098B"/>
<path d="M35.4167 337.81C35.4167 337.81 77.5762 410.263 86.4523 432.765" stroke="#AF58EE" stroke-miterlimit="10"/>
<path d="M28.5122 372.203L58.1647 377.855L64.2622 350.58" stroke="#AF58EE" stroke-miterlimit="10"/>
<path d="M44.1849 404.742L75.8628 410.606L88.918 379.85" stroke="#AF58EE" stroke-miterlimit="10"/>
<path d="M74.9465 432.765H128.53L123.927 461.692H80.5352L74.9465 432.765Z" fill="#BA68C8"/>
<path d="M129.185 440.764H74.7851C72.7867 440.764 71.1666 439.031 71.1666 436.894V433.823C71.1666 431.686 72.7867 429.953 74.7851 429.953H129.185C131.183 429.953 132.803 431.686 132.803 433.823V436.894C132.803 439.03 131.183 440.764 129.185 440.764Z" fill="#4F0188"/>
<path opacity="0.42" d="M322.87 464.866C343.417 464.866 360.073 447.052 360.073 425.076C360.073 403.102 343.417 385.287 322.87 385.287C302.325 385.287 285.668 403.102 285.668 425.076C285.668 447.052 302.325 464.866 322.87 464.866Z" fill="#4F0188"/>
<path d="M346.246 410.379H299.494C298.214 410.379 297.176 411.489 297.176 412.858V440.412C297.176 441.781 298.214 442.89 299.494 442.89H346.246C347.526 442.89 348.563 441.781 348.563 440.412V412.858C348.563 411.488 347.525 410.379 346.246 410.379ZM346.939 414.353L324.985 429.706C324.799 429.836 324.583 429.902 324.369 429.902C324.18 429.902 323.989 429.852 323.818 429.748L298.245 414.396C297.702 414.069 297.51 413.336 297.814 412.757C298.118 412.176 298.807 411.97 299.346 412.296L324.324 427.291L345.706 412.338C346.224 411.973 346.924 412.129 347.264 412.687C347.606 413.243 347.46 413.99 346.939 414.353Z" fill="white"/>
<path d="M351.586 420.785C359.2 420.785 365.373 414.182 365.373 406.039C365.373 397.895 359.2 391.293 351.586 391.293C343.972 391.293 337.799 397.895 337.799 406.039C337.799 414.182 343.972 420.785 351.586 420.785Z" fill="#FFA9B3"/>
</svg>
